<svg width="732.0" height="1736.0" viewBox="0 0 732.0 1736.0" class="keymap" xmlns="http://www.w3.org/2000/svg" xmlns:xlink="http://www.w3.org/1999/xlink">
<style>/* inherit to force styles through use tags*/
svg path {
    fill: inherit;
}
/* font and background color specifications */
svg.keymap {
    font-family: SFMono-Regular,Consolas,Liberation Mono,Menlo,monospace;
    font-size: 14px;
    font-kerning: normal;
    text-rendering: optimizeLegibility;
    fill: #24292e;
}

/* default key styling */
rect.key {
    fill: #f6f8fa;
    stroke: #c9cccf;
    stroke-width: 1;
}

/* color accent for combo boxes */
rect.combo {
    fill: #cdf;
}

/* color accent for held keys */
rect.held, rect.combo.held {
    fill: #fdd;
}

/* color accent for ghost (optional) keys */
rect.ghost, rect.combo.ghost {
    stroke-dasharray: 4, 4;
    stroke-width: 2;
}

text {
    text-anchor: middle;
    dominant-baseline: middle;
}

/* styling for layer labels */
text.label {
    font-weight: bold;
    text-anchor: start;
    stroke: white;
    stroke-width: 2;
    paint-order: stroke;
}

/* styling for combo tap, and key hold/shifted label text */
text.combo, text.hold, text.shifted {
    font-size: 11px;
}

text.hold {
    text-anchor: middle;
    dominant-baseline: auto;
}

text.shifted {
    text-anchor: middle;
    dominant-baseline: hanging;
}

/* styling for hold/shifted label text in combo box */
text.combo.hold, text.combo.shifted {
    font-size: 8px;
}

/* lighter symbol for transparent keys */
text.trans {
    fill: #7b7e81;
}

/* styling for combo dendrons */
path.combo {
    stroke-width: 1;
    stroke: gray;
    fill: none;
}

/* Start Tabler Icons Cleanup */
/* cannot use height/width with glyphs */
.icon-tabler > path {
    fill: inherit;
    stroke: inherit;
}
/* hide tabler's default box */
.icon-tabler > path[stroke="none"][fill="none"] {
    visibility: collapse;
}
/* End Tabler Icons Cleanup */
</style>
<g class="layer-default">
<text x="30.0" y="28.0" class="label">default:</text>
<rect rx="6.0" ry="6.0" x="32.0" y="110.08000000000001" width="52.0" height="52.0" class="key"/>
<text x="58.0" y="136.08" class="tap">Q</text>
<rect rx="6.0" ry="6.0" x="88.0" y="75.36" width="52.0" height="52.0" class="key"/>
<text x="114.0" y="101.36" class="tap">W</text>
<rect rx="6.0" ry="6.0" x="144.0" y="58.0" width="52.0" height="52.0" class="key"/>
<text x="170.0" y="84.0" class="tap">F</text>
<rect rx="6.0" ry="6.0" x="200.0" y="73.68" width="52.0" height="52.0" class="key"/>
<text x="226.0" y="99.68" class="tap">P</text>
<rect rx="6.0" ry="6.0" x="256.0" y="81.52" width="52.0" height="52.0" class="key"/>
<text x="282.0" y="107.52" class="tap">B</text>
<rect rx="6.0" ry="6.0" x="424.0" y="81.52" width="52.0" height="52.0" class="key"/>
<text x="450.0" y="107.52" class="tap">J</text>
<rect rx="6.0" ry="6.0" x="480.0" y="73.68" width="52.0" height="52.0" class="key"/>
<text x="506.0" y="99.68" class="tap">L</text>
<rect rx="6.0" ry="6.0" x="536.0" y="58.0" width="52.0" height="52.0" class="key"/>
<text x="562.0" y="84.0" class="tap">U</text>
<rect rx="6.0" ry="6.0" x="592.0" y="75.36" width="52.0" height="52.0" class="key"/>
<text x="618.0" y="101.36" class="tap">Y</text>
<rect rx="6.0" ry="6.0" x="648.0" y="110.08000000000001" width="52.0" height="52.0" class="key"/>
<text x="674.0" y="136.08" class="tap">;</text>
<text x="674.0" y="160.08" class="hold">:</text>
<rect rx="6.0" ry="6.0" x="32.0" y="166.07999999999998" width="52.0" height="52.0" class="key"/>
<text x="58.0" y="192.07999999999998" class="tap">A</text>
<text x="58.0" y="216.07999999999998" class="hold">LSHIFT</text>
<rect rx="6.0" ry="6.0" x="88.0" y="131.36" width="52.0" height="52.0" class="key"/>
<text x="114.0" y="157.36" class="tap">R</text>
<text x="114.0" y="181.36" class="hold">LGUI</text>
<rect rx="6.0" ry="6.0" x="144.0" y="114.0" width="52.0" height="52.0" class="key"/>
<text x="170.0" y="140.0" class="tap">S</text>
<text x="170.0" y="164.0" class="hold">LALT</text>
<rect rx="6.0" ry="6.0" x="200.0" y="129.68" width="52.0" height="52.0" class="key"/>
<text x="226.0" y="155.68" class="tap">T</text>
<text x="226.0" y="179.68" class="hold">LCTRL</text>
<rect rx="6.0" ry="6.0" x="256.0" y="137.51999999999998" width="52.0" height="52.0" class="key"/>
<text x="282.0" y="163.51999999999998" class="tap">G</text>
<rect rx="6.0" ry="6.0" x="424.0" y="137.51999999999998" width="52.0" height="52.0" class="key"/>
<text x="450.0" y="163.51999999999998" class="tap">M</text>
<rect rx="6.0" ry="6.0" x="480.0" y="129.68" width="52.0" height="52.0" class="key"/>
<text x="506.0" y="155.68" class="tap">N</text>
<text x="506.0" y="179.68" class="hold">LCTRL</text>
<rect rx="6.0" ry="6.0" x="536.0" y="114.0" width="52.0" height="52.0" class="key"/>
<text x="562.0" y="140.0" class="tap">E</text>
<text x="562.0" y="164.0" class="hold">LALT</text>
<rect rx="6.0" ry="6.0" x="592.0" y="131.36" width="52.0" height="52.0" class="key"/>
<text x="618.0" y="157.36" class="tap">I</text>
<text x="618.0" y="181.36" class="hold">RGUI</text>
<rect rx="6.0" ry="6.0" x="648.0" y="166.07999999999998" width="52.0" height="52.0" class="key"/>
<text x="674.0" y="192.07999999999998" class="tap">O</text>
<text x="674.0" y="216.07999999999998" class="hold">RSHIFT</text>
<rect rx="6.0" ry="6.0" x="32.0" y="222.08" width="52.0" height="52.0" class="key"/>
<text x="58.0" y="248.08" class="tap">Z</text>
<rect rx="6.0" ry="6.0" x="88.0" y="187.36" width="52.0" height="52.0" class="key"/>
<text x="114.0" y="213.36" class="tap">X</text>
<rect rx="6.0" ry="6.0" x="144.0" y="170.0" width="52.0" height="52.0" class="key"/>
<text x="170.0" y="196.0" class="tap">C</text>
<rect rx="6.0" ry="6.0" x="200.0" y="185.67999999999998" width="52.0" height="52.0" class="key"/>
<text x="226.0" y="211.67999999999998" class="tap">D</text>
<rect rx="6.0" ry="6.0" x="256.0" y="193.51999999999998" width="52.0" height="52.0" class="key"/>
<text x="282.0" y="219.51999999999998" class="tap">V</text>
<rect rx="6.0" ry="6.0" x="424.0" y="193.51999999999998" width="52.0" height="52.0" class="key"/>
<text x="450.0" y="219.51999999999998" class="tap">K</text>
<rect rx="6.0" ry="6.0" x="480.0" y="185.67999999999998" width="52.0" height="52.0" class="key"/>
<text x="506.0" y="211.67999999999998" class="tap">H</text>
<rect rx="6.0" ry="6.0" x="536.0" y="170.0" width="52.0" height="52.0" class="key"/>
<text x="562.0" y="196.0" class="tap">,</text>
<text x="562.0" y="220.0" class="hold">&lt;</text>
<rect rx="6.0" ry="6.0" x="592.0" y="187.36" width="52.0" height="52.0" class="key"/>
<text x="618.0" y="213.36" class="tap">.</text>
<text x="618.0" y="237.36" class="hold">&gt;</text>
<rect rx="6.0" ry="6.0" x="648.0" y="222.08" width="52.0" height="52.0" class="key"/>
<text x="674.0" y="248.08" class="tap">/</text>
<text x="674.0" y="272.08000000000004" class="hold">?</text>
<rect rx="6.0" ry="6.0" x="228.0" y="268.0" width="52.0" height="52.0" class="key"/>
<text x="254.0" y="294.0" class="tap">numpad</text>
<text x="254.0" y="318.0" class="hold">numpad</text>
<rect rx="6.0" ry="6.0" x="284.0" y="282.0" width="52.0" height="52.0" class="key"/>
<text x="310.0" y="308.0" class="tap">SPACE</text>
<text x="310.0" y="332.0" class="hold">lower</text>
<rect rx="6.0" ry="6.0" x="396.0" y="282.0" width="52.0" height="52.0" class="key"/>
<text x="422.0" y="308.0" class="tap" style="font-size: 78%">BACKSPACE</text>
<rect rx="6.0" ry="6.0" x="452.0" y="268.0" width="52.0" height="52.0" class="key"/>
<text x="478.0" y="294.0" class="tap">ENTER</text>
<text x="478.0" y="318.0" class="hold">raise</text>
<rect rx="6.0" ry="6.0" x="72.0" y="105.72" width="28.0" height="26.0" class="combo"/>
<text x="86.0" y="118.72" class="combo tap">ESC</text>
<rect rx="6.0" ry="6.0" x="128.0" y="79.68" width="28.0" height="26.0" class="combo"/>
<text x="142.0" y="92.68" class="combo tap">DEL</text>
<rect rx="6.0" ry="6.0" x="184.0" y="78.84" width="28.0" height="26.0" class="combo"/>
<text x="198.0" y="91.84" class="combo tap">PrntScr</text>
<rect rx="6.0" ry="6.0" x="464.0" y="90.6" width="28.0" height="26.0" class="combo"/>
<text x="478.0" y="103.6" class="combo tap">Close</text>
<path d="M562.0,95.01333333333334 l-37.39781251276224,3.1164843760635237" class="combo"/>
<path d="M562.0,95.01333333333334 l37.45207218046444,4.244568180452635" class="combo"/>
<rect rx="6.0" ry="6.0" x="548.0" y="82.01333333333334" width="28.0" height="26.0" class="combo"/>
<text x="562.0" y="95.01333333333334" class="combo tap">Lock</text>
<rect rx="6.0" ry="6.0" x="632.0" y="105.72" width="28.0" height="26.0" class="combo"/>
<text x="646.0" y="118.72" class="combo tap">
<tspan x="646.0" dy="-0.6em">Ctrl</tspan><tspan x="646.0" dy="1.2em">Bspc</tspan></text>
<rect rx="6.0" ry="6.0" x="72.0" y="161.72" width="28.0" height="26.0" class="combo"/>
<text x="86.0" y="174.72" class="combo tap">TAB</text>
<rect rx="6.0" ry="6.0" x="128.0" y="135.68" width="28.0" height="26.0" class="combo"/>
<text x="142.0" y="148.68" class="combo tap">
<tspan x="142.0" dy="-0.6em">Shift</tspan><tspan x="142.0" dy="1.2em">Tab</tspan></text>
<rect rx="6.0" ry="6.0" x="632.0" y="161.72" width="28.0" height="26.0" class="combo"/>
<text x="646.0" y="174.72" class="combo tap">&#x27;</text>
<rect rx="6.0" ry="6.0" x="72.0" y="217.72000000000003" width="28.0" height="26.0" class="combo"/>
<text x="86.0" y="230.72000000000003" class="combo tap">Cut</text>
<rect rx="6.0" ry="6.0" x="128.0" y="191.68" width="28.0" height="26.0" class="combo"/>
<text x="142.0" y="204.68" class="combo tap">Copy</text>
<rect rx="6.0" ry="6.0" x="184.0" y="190.83999999999997" width="28.0" height="26.0" class="combo"/>
<text x="198.0" y="203.83999999999997" class="combo tap">Paste</text>
<rect rx="6.0" ry="6.0" x="520.0" y="190.83999999999997" width="28.0" height="26.0" class="combo"/>
<text x="534.0" y="203.83999999999997" class="combo tap">APP</text>
<rect rx="6.0" ry="6.0" x="632.0" y="217.72000000000003" width="28.0" height="26.0" class="combo"/>
<text x="646.0" y="230.72000000000003" class="combo tap">\</text>
</g>
<g class="layer-lower">
<text x="30.0" y="364.0" class="label">lower:</text>
<rect rx="6.0" ry="6.0" x="32.0" y="446.08000000000004" width="52.0" height="52.0" class="key"/>
<text x="58.0" y="472.08000000000004" class="tap">1</text>
<text x="58.0" y="496.08000000000004" class="hold">!</text>
<rect rx="6.0" ry="6.0" x="88.0" y="411.36" width="52.0" height="52.0" class="key"/>
<text x="114.0" y="437.36" class="tap">2</text>
<text x="114.0" y="461.36" class="hold">@</text>
<rect rx="6.0" ry="6.0" x="144.0" y="394.0" width="52.0" height="52.0" class="key"/>
<text x="170.0" y="420.0" class="tap">3</text>
<text x="170.0" y="444.0" class="hold">#</text>
<rect rx="6.0" ry="6.0" x="200.0" y="409.68" width="52.0" height="52.0" class="key"/>
<text x="226.0" y="435.68" class="tap">4</text>
<text x="226.0" y="459.68" class="hold">$</text>
<rect rx="6.0" ry="6.0" x="256.0" y="417.52" width="52.0" height="52.0" class="key"/>
<text x="282.0" y="443.52" class="tap">5</text>
<text x="282.0" y="467.52" class="hold">%</text>
<rect rx="6.0" ry="6.0" x="424.0" y="417.52" width="52.0" height="52.0" class="key"/>
<text x="450.0" y="443.52" class="tap">6</text>
<text x="450.0" y="467.52" class="hold">^</text>
<rect rx="6.0" ry="6.0" x="480.0" y="409.68" width="52.0" height="52.0" class="key"/>
<text x="506.0" y="435.68" class="tap">7</text>
<text x="506.0" y="459.68" class="hold">&amp;</text>
<rect rx="6.0" ry="6.0" x="536.0" y="394.0" width="52.0" height="52.0" class="key"/>
<text x="562.0" y="420.0" class="tap">8</text>
<text x="562.0" y="444.0" class="hold">*</text>
<rect rx="6.0" ry="6.0" x="592.0" y="411.36" width="52.0" height="52.0" class="key"/>
<text x="618.0" y="437.36" class="tap">9</text>
<text x="618.0" y="461.36" class="hold">(</text>
<rect rx="6.0" ry="6.0" x="648.0" y="446.08000000000004" width="52.0" height="52.0" class="key"/>
<text x="674.0" y="472.08000000000004" class="tap">0</text>
<text x="674.0" y="496.08000000000004" class="hold">)</text>
<rect rx="6.0" ry="6.0" x="32.0" y="502.0799999999999" width="52.0" height="52.0" class="key"/>
<text x="58.0" y="528.0799999999999" class="tap">{</text>
<rect rx="6.0" ry="6.0" x="88.0" y="467.36" width="52.0" height="52.0" class="key"/>
<text x="114.0" y="493.36" class="tap">}</text>
<rect rx="6.0" ry="6.0" x="144.0" y="450.0" width="52.0" height="52.0" class="key"/>
<text x="170.0" y="476.0" class="tap">(</text>
<rect rx="6.0" ry="6.0" x="200.0" y="465.68" width="52.0" height="52.0" class="key"/>
<text x="226.0" y="491.68" class="tap">)</text>
<rect rx="6.0" ry="6.0" x="256.0" y="473.52" width="52.0" height="52.0" class="key"/>
<text x="282.0" y="499.52" class="tap" style="font-size: 64%">&amp;key_repeat</text>
<rect rx="6.0" ry="6.0" x="424.0" y="473.52" width="52.0" height="52.0" class="key"/>
<text x="450.0" y="499.52" class="tap">`</text>
<text x="450.0" y="523.52" class="hold">~</text>
<rect rx="6.0" ry="6.0" x="480.0" y="465.68" width="52.0" height="52.0" class="key"/>
<text x="506.0" y="491.68" class="tap">-</text>
<text x="506.0" y="515.6800000000001" class="hold">_</text>
<rect rx="6.0" ry="6.0" x="536.0" y="450.0" width="52.0" height="52.0" class="key"/>
<text x="562.0" y="476.0" class="tap">=</text>
<text x="562.0" y="500.0" class="hold">+</text>
<rect rx="6.0" ry="6.0" x="592.0" y="467.36" width="52.0" height="52.0" class="trans key"/>
<text x="618.0" y="493.36" class="trans tap">▽</text>
<rect rx="6.0" ry="6.0" x="648.0" y="502.0799999999999" width="52.0" height="52.0" class="key"/>
<text x="674.0" y="528.0799999999999" class="tap">&#x27;</text>
<rect rx="6.0" ry="6.0" x="32.0" y="558.08" width="52.0" height="52.0" class="trans key"/>
<text x="58.0" y="584.08" class="trans tap">▽</text>
<rect rx="6.0" ry="6.0" x="88.0" y="523.36" width="52.0" height="52.0" class="trans key"/>
<text x="114.0" y="549.36" class="trans tap">▽</text>
<rect rx="6.0" ry="6.0" x="144.0" y="506.0" width="52.0" height="52.0" class="key"/>
<text x="170.0" y="532.0" class="tap">[</text>
<rect rx="6.0" ry="6.0" x="200.0" y="521.68" width="52.0" height="52.0" class="key"/>
<text x="226.0" y="547.68" class="tap">]</text>
<rect rx="6.0" ry="6.0" x="256.0" y="529.52" width="52.0" height="52.0" class="trans key"/>
<text x="282.0" y="555.52" class="trans tap">▽</text>
<rect rx="6.0" ry="6.0" x="424.0" y="529.52" width="52.0" height="52.0" class="trans key"/>
<text x="450.0" y="555.52" class="trans tap">▽</text>
<rect rx="6.0" ry="6.0" x="480.0" y="521.68" width="52.0" height="52.0" class="trans key"/>
<text x="506.0" y="547.68" class="trans tap">▽</text>
<rect rx="6.0" ry="6.0" x="536.0" y="506.0" width="52.0" height="52.0" class="trans key"/>
<text x="562.0" y="532.0" class="trans tap">▽</text>
<rect rx="6.0" ry="6.0" x="592.0" y="523.36" width="52.0" height="52.0" class="trans key"/>
<text x="618.0" y="549.36" class="trans tap">▽</text>
<rect rx="6.0" ry="6.0" x="648.0" y="558.08" width="52.0" height="52.0" class="key"/>
<text x="674.0" y="584.08" class="tap">\</text>
<text x="674.0" y="608.08" class="hold">Pipe</text>
<rect rx="6.0" ry="6.0" x="228.0" y="604.0" width="52.0" height="52.0" class="trans key"/>
<text x="254.0" y="630.0" class="trans tap">▽</text>
<rect rx="6.0" ry="6.0" x="284.0" y="618.0" width="52.0" height="52.0" class="held key"/>
<rect rx="6.0" ry="6.0" x="396.0" y="618.0" width="52.0" height="52.0" class="trans key"/>
<text x="422.0" y="644.0" class="trans tap">▽</text>
<rect rx="6.0" ry="6.0" x="452.0" y="604.0" width="52.0" height="52.0" class="key"/>
<text x="478.0" y="630.0" class="tap" style="font-size: 88%">settings</text>
<rect rx="6.0" ry="6.0" x="184.0" y="470.84000000000003" width="28.0" height="26.0" class="combo"/>
<text x="198.0" y="483.84000000000003" class="combo tap">CAPS</text>
</g>
<g class="layer-raise">
<text x="30.0" y="700.0" class="label">raise:</text>
<rect rx="6.0" ry="6.0" x="32.0" y="782.08" width="52.0" height="52.0" class="key"/>
<text x="58.0" y="808.08" class="tap">F10</text>
<rect rx="6.0" ry="6.0" x="88.0" y="747.36" width="52.0" height="52.0" class="key"/>
<text x="114.0" y="773.36" class="tap">F7</text>
<rect rx="6.0" ry="6.0" x="144.0" y="730.0" width="52.0" height="52.0" class="key"/>
<text x="170.0" y="756.0" class="tap">F8</text>
<rect rx="6.0" ry="6.0" x="200.0" y="745.68" width="52.0" height="52.0" class="key"/>
<text x="226.0" y="771.68" class="tap">F9</text>
<rect rx="6.0" ry="6.0" x="256.0" y="753.52" width="52.0" height="52.0" class="trans key"/>
<text x="282.0" y="779.52" class="trans tap">▽</text>
<rect rx="6.0" ry="6.0" x="424.0" y="753.52" width="52.0" height="52.0" class="trans key"/>
<text x="450.0" y="779.52" class="trans tap">▽</text>
<rect rx="6.0" ry="6.0" x="480.0" y="745.68" width="52.0" height="52.0" class="key"/>
<text x="506.0" y="771.68" class="tap">HOME</text>
<rect rx="6.0" ry="6.0" x="536.0" y="730.0" width="52.0" height="52.0" class="key"/>
<text x="562.0" y="756.0" class="tap">
<tspan x="562.0" dy="-0.6em">PG</tspan><tspan x="562.0" dy="1.2em">DN</tspan></text>
<rect rx="6.0" ry="6.0" x="592.0" y="747.36" width="52.0" height="52.0" class="key"/>
<text x="618.0" y="773.36" class="tap">
<tspan x="618.0" dy="-0.6em">PG</tspan><tspan x="618.0" dy="1.2em">UP</tspan></text>
<rect rx="6.0" ry="6.0" x="648.0" y="782.08" width="52.0" height="52.0" class="key"/>
<text x="674.0" y="808.08" class="tap">END</text>
<rect rx="6.0" ry="6.0" x="32.0" y="838.0799999999999" width="52.0" height="52.0" class="key"/>
<text x="58.0" y="864.0799999999999" class="tap">F11</text>
<rect rx="6.0" ry="6.0" x="88.0" y="803.36" width="52.0" height="52.0" class="key"/>
<text x="114.0" y="829.36" class="tap">F4</text>
<rect rx="6.0" ry="6.0" x="144.0" y="786.0" width="52.0" height="52.0" class="key"/>
<text x="170.0" y="812.0" class="tap">F5</text>
<rect rx="6.0" ry="6.0" x="200.0" y="801.6800000000001" width="52.0" height="52.0" class="key"/>
<text x="226.0" y="827.6800000000001" class="tap">F6</text>
<rect rx="6.0" ry="6.0" x="256.0" y="809.52" width="52.0" height="52.0" class="trans key"/>
<text x="282.0" y="835.52" class="trans tap">▽</text>
<rect rx="6.0" ry="6.0" x="424.0" y="809.52" width="52.0" height="52.0" class="trans key"/>
<text x="450.0" y="835.52" class="trans tap">▽</text>
<rect rx="6.0" ry="6.0" x="480.0" y="801.6800000000001" width="52.0" height="52.0" class="key"/>
<text x="506.0" y="827.6800000000001" class="tap">LEFT</text>
<rect rx="6.0" ry="6.0" x="536.0" y="786.0" width="52.0" height="52.0" class="key"/>
<text x="562.0" y="812.0" class="tap">DOWN</text>
<rect rx="6.0" ry="6.0" x="592.0" y="803.36" width="52.0" height="52.0" class="key"/>
<text x="618.0" y="829.36" class="tap">UP</text>
<rect rx="6.0" ry="6.0" x="648.0" y="838.0799999999999" width="52.0" height="52.0" class="key"/>
<text x="674.0" y="864.0799999999999" class="tap">RIGHT</text>
<rect rx="6.0" ry="6.0" x="32.0" y="894.08" width="52.0" height="52.0" class="key"/>
<text x="58.0" y="920.08" class="tap">F12</text>
<rect rx="6.0" ry="6.0" x="88.0" y="859.36" width="52.0" height="52.0" class="key"/>
<text x="114.0" y="885.36" class="tap">F1</text>
<rect rx="6.0" ry="6.0" x="144.0" y="842.0" width="52.0" height="52.0" class="key"/>
<text x="170.0" y="868.0" class="tap">F2</text>
<rect rx="6.0" ry="6.0" x="200.0" y="857.68" width="52.0" height="52.0" class="key"/>
<text x="226.0" y="883.68" class="tap">F3</text>
<rect rx="6.0" ry="6.0" x="256.0" y="865.52" width="52.0" height="52.0" class="trans key"/>
<text x="282.0" y="891.52" class="trans tap">▽</text>
<rect rx="6.0" ry="6.0" x="424.0" y="865.52" width="52.0" height="52.0" class="trans key"/>
<text x="450.0" y="891.52" class="trans tap">▽</text>
<rect rx="6.0" ry="6.0" x="480.0" y="857.68" width="52.0" height="52.0" class="key"/>
<text x="506.0" y="883.68" class="tap">MUTE</text>
<rect rx="6.0" ry="6.0" x="536.0" y="842.0" width="52.0" height="52.0" class="key"/>
<text x="562.0" y="868.0" class="tap">
<tspan x="562.0" dy="-0.6em">VOLUME</tspan><tspan x="562.0" dy="1.2em">DOWN</tspan></text>
<rect rx="6.0" ry="6.0" x="592.0" y="859.36" width="52.0" height="52.0" class="key"/>
<text x="618.0" y="885.36" class="tap">
<tspan x="618.0" dy="-0.6em">VOLUME</tspan><tspan x="618.0" dy="1.2em">UP</tspan></text>
<rect rx="6.0" ry="6.0" x="648.0" y="894.08" width="52.0" height="52.0" class="key"/>
<text x="674.0" y="920.08" class="tap">PLAY</text>
<rect rx="6.0" ry="6.0" x="228.0" y="940.0" width="52.0" height="52.0" class="trans key"/>
<text x="254.0" y="966.0" class="trans tap">▽</text>
<rect rx="6.0" ry="6.0" x="284.0" y="954.0" width="52.0" height="52.0" class="trans key"/>
<text x="310.0" y="980.0" class="trans tap">▽</text>
<rect rx="6.0" ry="6.0" x="396.0" y="954.0" width="52.0" height="52.0" class="trans key"/>
<text x="422.0" y="980.0" class="trans tap">▽</text>
<rect rx="6.0" ry="6.0" x="452.0" y="940.0" width="52.0" height="52.0" class="held key"/>
<rect rx="6.0" ry="6.0" x="184.0" y="806.84" width="28.0" height="26.0" class="combo"/>
<text x="198.0" y="819.84" class="combo tap">CAPS</text>
</g>
<g class="layer-numpad">
<text x="30.0" y="1036.0" class="label">numpad:</text>
<rect rx="6.0" ry="6.0" x="32.0" y="1118.08" width="52.0" height="52.0" class="trans key"/>
<text x="58.0" y="1144.08" class="trans tap">▽</text>
<rect rx="6.0" ry="6.0" x="88.0" y="1083.36" width="52.0" height="52.0" class="key"/>
<text x="114.0" y="1109.36" class="tap">PSCRN</text>
<rect rx="6.0" ry="6.0" x="144.0" y="1066.0" width="52.0" height="52.0" class="key"/>
<text x="170.0" y="1092.0" class="tap" style="font-size: 70%">SCROLLLOCK</text>
<rect rx="6.0" ry="6.0" x="200.0" y="1081.68" width="52.0" height="52.0" class="key"/>
<text x="226.0" y="1107.68" class="tap">
<tspan x="226.0" dy="-0.6em">PAUSE</tspan><tspan x="226.0" dy="1.2em">BREAK</tspan></text>
<rect rx="6.0" ry="6.0" x="256.0" y="1089.52" width="52.0" height="52.0" class="key"/>
<text x="282.0" y="1115.52" class="tap">
<tspan x="282.0" dy="-0.6em">NUM</tspan><tspan x="282.0" dy="1.2em">LOCK</tspan></text>
<rect rx="6.0" ry="6.0" x="424.0" y="1089.52" width="52.0" height="52.0" class="key"/>
<text x="450.0" y="1115.52" class="tap">-</text>
<rect rx="6.0" ry="6.0" x="480.0" y="1081.68" width="52.0" height="52.0" class="key"/>
<text x="506.0" y="1107.68" class="tap">7</text>
<rect rx="6.0" ry="6.0" x="536.0" y="1066.0" width="52.0" height="52.0" class="key"/>
<text x="562.0" y="1092.0" class="tap">8</text>
<rect rx="6.0" ry="6.0" x="592.0" y="1083.36" width="52.0" height="52.0" class="key"/>
<text x="618.0" y="1109.36" class="tap">9</text>
<rect rx="6.0" ry="6.0" x="648.0" y="1118.08" width="52.0" height="52.0" class="key"/>
<text x="674.0" y="1144.08" class="tap">/</text>
<rect rx="6.0" ry="6.0" x="32.0" y="1174.08" width="52.0" height="52.0" class="trans key"/>
<text x="58.0" y="1200.08" class="trans tap">▽</text>
<rect rx="6.0" ry="6.0" x="88.0" y="1139.36" width="52.0" height="52.0" class="key"/>
<text x="114.0" y="1165.36" class="tap">INSERT</text>
<rect rx="6.0" ry="6.0" x="144.0" y="1122.0" width="52.0" height="52.0" class="key"/>
<text x="170.0" y="1148.0" class="tap">HOME</text>
<rect rx="6.0" ry="6.0" x="200.0" y="1137.68" width="52.0" height="52.0" class="key"/>
<text x="226.0" y="1163.68" class="tap">
<tspan x="226.0" dy="-0.6em">PG</tspan><tspan x="226.0" dy="1.2em">UP</tspan></text>
<rect rx="6.0" ry="6.0" x="256.0" y="1145.52" width="52.0" height="52.0" class="trans key"/>
<text x="282.0" y="1171.52" class="trans tap">▽</text>
<rect rx="6.0" ry="6.0" x="424.0" y="1145.52" width="52.0" height="52.0" class="key"/>
<text x="450.0" y="1171.52" class="tap">+</text>
<rect rx="6.0" ry="6.0" x="480.0" y="1137.68" width="52.0" height="52.0" class="key"/>
<text x="506.0" y="1163.68" class="tap">4</text>
<rect rx="6.0" ry="6.0" x="536.0" y="1122.0" width="52.0" height="52.0" class="key"/>
<text x="562.0" y="1148.0" class="tap">5</text>
<rect rx="6.0" ry="6.0" x="592.0" y="1139.36" width="52.0" height="52.0" class="key"/>
<text x="618.0" y="1165.36" class="tap">6</text>
<rect rx="6.0" ry="6.0" x="648.0" y="1174.08" width="52.0" height="52.0" class="key"/>
<text x="674.0" y="1200.08" class="tap">*</text>
<rect rx="6.0" ry="6.0" x="32.0" y="1230.08" width="52.0" height="52.0" class="trans key"/>
<text x="58.0" y="1256.08" class="trans tap">▽</text>
<rect rx="6.0" ry="6.0" x="88.0" y="1195.3600000000001" width="52.0" height="52.0" class="key"/>
<text x="114.0" y="1221.3600000000001" class="tap">DELETE</text>
<rect rx="6.0" ry="6.0" x="144.0" y="1178.0" width="52.0" height="52.0" class="key"/>
<text x="170.0" y="1204.0" class="tap">END</text>
<rect rx="6.0" ry="6.0" x="200.0" y="1193.68" width="52.0" height="52.0" class="key"/>
<text x="226.0" y="1219.68" class="tap">
<tspan x="226.0" dy="-0.6em">PG</tspan><tspan x="226.0" dy="1.2em">DN</tspan></text>
<rect rx="6.0" ry="6.0" x="256.0" y="1201.52" width="52.0" height="52.0" class="trans key"/>
<text x="282.0" y="1227.52" class="trans tap">▽</text>
<rect rx="6.0" ry="6.0" x="424.0" y="1201.52" width="52.0" height="52.0" class="key"/>
<text x="450.0" y="1227.52" class="tap">.</text>
<rect rx="6.0" ry="6.0" x="480.0" y="1193.68" width="52.0" height="52.0" class="key"/>
<text x="506.0" y="1219.68" class="tap">1</text>
<rect rx="6.0" ry="6.0" x="536.0" y="1178.0" width="52.0" height="52.0" class="key"/>
<text x="562.0" y="1204.0" class="tap">2</text>
<rect rx="6.0" ry="6.0" x="592.0" y="1195.3600000000001" width="52.0" height="52.0" class="key"/>
<text x="618.0" y="1221.3600000000001" class="tap">3</text>
<rect rx="6.0" ry="6.0" x="648.0" y="1230.08" width="52.0" height="52.0" class="key"/>
<text x="674.0" y="1256.08" class="tap">ENTER</text>
<rect rx="6.0" ry="6.0" x="228.0" y="1276.0" width="52.0" height="52.0" class="held key"/>
<rect rx="6.0" ry="6.0" x="284.0" y="1290.0" width="52.0" height="52.0" class="trans key"/>
<text x="310.0" y="1316.0" class="trans tap">▽</text>
<rect rx="6.0" ry="6.0" x="396.0" y="1290.0" width="52.0" height="52.0" class="trans key"/>
<text x="422.0" y="1316.0" class="trans tap">▽</text>
<rect rx="6.0" ry="6.0" x="452.0" y="1276.0" width="52.0" height="52.0" class="key"/>
<text x="478.0" y="1302.0" class="tap">0</text>
</g>
<g class="layer-settings">
<text x="30.0" y="1372.0" class="label">settings:</text>
<rect rx="6.0" ry="6.0" x="32.0" y="1454.08" width="52.0" height="52.0" class="key"/>
<text x="58.0" y="1480.08" class="tap">BT0</text>
<rect rx="6.0" ry="6.0" x="88.0" y="1419.36" width="52.0" height="52.0" class="key"/>
<text x="114.0" y="1445.36" class="tap">BT1</text>
<rect rx="6.0" ry="6.0" x="144.0" y="1402.0" width="52.0" height="52.0" class="key"/>
<text x="170.0" y="1428.0" class="tap">BT2</text>
<rect rx="6.0" ry="6.0" x="200.0" y="1417.68" width="52.0" height="52.0" class="key"/>
<text x="226.0" y="1443.68" class="tap">BT3</text>
<rect rx="6.0" ry="6.0" x="256.0" y="1425.52" width="52.0" height="52.0" class="key"/>
<rect rx="6.0" ry="6.0" x="424.0" y="1425.52" width="52.0" height="52.0" class="key"/>
<rect rx="6.0" ry="6.0" x="480.0" y="1417.68" width="52.0" height="52.0" class="key"/>
<rect rx="6.0" ry="6.0" x="536.0" y="1402.0" width="52.0" height="52.0" class="key"/>
<rect rx="6.0" ry="6.0" x="592.0" y="1419.36" width="52.0" height="52.0" class="key"/>
<rect rx="6.0" ry="6.0" x="648.0" y="1454.08" width="52.0" height="52.0" class="key"/>
<rect rx="6.0" ry="6.0" x="32.0" y="1510.08" width="52.0" height="52.0" class="key"/>
<rect rx="6.0" ry="6.0" x="88.0" y="1475.36" width="52.0" height="52.0" class="key"/>
<rect rx="6.0" ry="6.0" x="144.0" y="1458.0" width="52.0" height="52.0" class="key"/>
<rect rx="6.0" ry="6.0" x="200.0" y="1473.68" width="52.0" height="52.0" class="key"/>
<rect rx="6.0" ry="6.0" x="256.0" y="1481.52" width="52.0" height="52.0" class="key"/>
<text x="282.0" y="1507.52" class="tap" style="font-size: 70%">bootloader</text>
<rect rx="6.0" ry="6.0" x="424.0" y="1481.52" width="52.0" height="52.0" class="key"/>
<text x="450.0" y="1507.52" class="tap" style="font-size: 70%">bootloader</text>
<rect rx="6.0" ry="6.0" x="480.0" y="1473.68" width="52.0" height="52.0" class="key"/>
<rect rx="6.0" ry="6.0" x="536.0" y="1458.0" width="52.0" height="52.0" class="key"/>
<rect rx="6.0" ry="6.0" x="592.0" y="1475.36" width="52.0" height="52.0" class="key"/>
<rect rx="6.0" ry="6.0" x="648.0" y="1510.08" width="52.0" height="52.0" class="key"/>
<rect rx="6.0" ry="6.0" x="32.0" y="1566.08" width="52.0" height="52.0" class="key"/>
<text x="58.0" y="1592.08" class="tap">
<tspan x="58.0" dy="-0.6em">BT</tspan><tspan x="58.0" dy="1.2em">PRV</tspan></text>
<rect rx="6.0" ry="6.0" x="88.0" y="1531.3600000000001" width="52.0" height="52.0" class="key"/>
<text x="114.0" y="1557.3600000000001" class="tap">
<tspan x="114.0" dy="-0.6em">BT</tspan><tspan x="114.0" dy="1.2em">CLR</tspan></text>
<rect rx="6.0" ry="6.0" x="144.0" y="1514.0" width="52.0" height="52.0" class="key"/>
<rect rx="6.0" ry="6.0" x="200.0" y="1529.68" width="52.0" height="52.0" class="key"/>
<text x="226.0" y="1555.68" class="tap">
<tspan x="226.0" dy="-0.6em">BT</tspan><tspan x="226.0" dy="1.2em">NXT</tspan></text>
<rect rx="6.0" ry="6.0" x="256.0" y="1537.52" width="52.0" height="52.0" class="key"/>
<text x="282.0" y="1563.52" class="tap">reset</text>
<rect rx="6.0" ry="6.0" x="424.0" y="1537.52" width="52.0" height="52.0" class="key"/>
<text x="450.0" y="1563.52" class="tap">reset</text>
<rect rx="6.0" ry="6.0" x="480.0" y="1529.68" width="52.0" height="52.0" class="key"/>
<rect rx="6.0" ry="6.0" x="536.0" y="1514.0" width="52.0" height="52.0" class="key"/>
<rect rx="6.0" ry="6.0" x="592.0" y="1531.3600000000001" width="52.0" height="52.0" class="key"/>
<rect rx="6.0" ry="6.0" x="648.0" y="1566.08" width="52.0" height="52.0" class="key"/>
<rect rx="6.0" ry="6.0" x="228.0" y="1612.0" width="52.0" height="52.0" class="trans key"/>
<text x="254.0" y="1638.0" class="trans tap">▽</text>
<rect rx="6.0" ry="6.0" x="284.0" y="1626.0" width="52.0" height="52.0" class="held key"/>
<rect rx="6.0" ry="6.0" x="396.0" y="1626.0" width="52.0" height="52.0" class="trans key"/>
<text x="422.0" y="1652.0" class="trans tap">▽</text>
<rect rx="6.0" ry="6.0" x="452.0" y="1612.0" width="52.0" height="52.0" class="held key"/>
</g>
</svg>
